<svg version="1.1" viewBox="0 0 25.1 40.227" xmlns="http://www.w3.org/2000/svg" id="hey">
 <g transform="translate(-403.95 -503.06)">
  <rect x="410.28" y="507.58" width="12.625" height="14.5" fill="#fff"/>
  <path id="marker" d="m416.54 503.61c-6.573 0-12.044 5.691-12.044 11.866 0 2.778 1.564 6.308 2.694 8.746l9.306 17.872 9.262-17.872c1.13-2.438 2.738-5.791 2.738-8.746 0-6.175-5.383-11.866-11.956-11.866zm0 7.155c2.584 0.017 4.679 2.122 4.679 4.71s-2.095 4.663-4.679 4.679c-2.584-0.017-4.679-2.09-4.679-4.679 0-2.588 2.095-4.693 4.679-4.71z" stroke-linecap="round" stroke-width="1.1" style="fill:blue;stroke:blue"/>
 </g>
</svg>
